<?xml version="1.0" encoding="UTF-8" standalone="no"?>
<!DOCTYPE svg PUBLIC "-//W3C//DTD SVG 1.1//EN"
 "http://www.w3.org/Graphics/SVG/1.1/DTD/svg11.dtd">
<!-- Generated by graphviz version 2.38.0 (20140413.2041)
 -->
<!-- Title: controllers_diagram Pages: 1 -->
<svg width="560pt" height="582pt"
 viewBox="0.00 0.00 560.00 582.00" xmlns="http://www.w3.org/2000/svg" xmlns:xlink="http://www.w3.org/1999/xlink">
<g id="graph0" class="graph" transform="scale(1 1) rotate(0) translate(213.5 338)">
<title>controllers_diagram</title>
<polygon fill="none" stroke="none" points="-213.5,244 -213.5,-338 346.5,-338 346.5,244 -213.5,244"/>
<!-- _diagram_info -->
<g id="node1" class="node"><title>_diagram_info</title>
<text text-anchor="start" x="98" y="26.4" font-family="Times,serif" font-size="13.00">Controllers diagram</text>
<text text-anchor="start" x="98" y="40.4" font-family="Times,serif" font-size="13.00">Date: Apr 17 2017 &#45; 17:43</text>
<text text-anchor="start" x="98" y="54.4" font-family="Times,serif" font-size="13.00">Migration version: 20170415180659</text>
<text text-anchor="start" x="98" y="68.4" font-family="Times,serif" font-size="13.00">Generated by RailRoady 1.5.2</text>
<text text-anchor="start" x="98" y="82.4" font-family="Times,serif" font-size="13.00">http://railroady.prestonlee.com</text>
</g>
<!-- SearchController -->
<g id="node2" class="node"><title>SearchController</title>
<path fill="none" stroke="black" d="M-62.5,224.5C-62.5,224.5 22.5,224.5 22.5,224.5 28.5,224.5 34.5,218.5 34.5,212.5 34.5,212.5 34.5,143.5 34.5,143.5 34.5,137.5 28.5,131.5 22.5,131.5 22.5,131.5 -62.5,131.5 -62.5,131.5 -68.5,131.5 -74.5,137.5 -74.5,143.5 -74.5,143.5 -74.5,212.5 -74.5,212.5 -74.5,218.5 -68.5,224.5 -62.5,224.5"/>
<text text-anchor="middle" x="-20" y="146.7" font-family="Times,serif" font-size="14.00">SearchController</text>
<polyline fill="none" stroke="black" points="-74.5,154.5 34.5,154.5 "/>
<text text-anchor="start" x="-66.5" y="169.7" font-family="Times,serif" font-size="14.00">index</text>
<polyline fill="none" stroke="black" points="-74.5,177.5 34.5,177.5 "/>
<polyline fill="none" stroke="black" points="-74.5,201.5 34.5,201.5 "/>
<text text-anchor="start" x="-66.5" y="216.7" font-family="Times,serif" font-size="14.00">_layout</text>
</g>
<!-- ApplicationController -->
<g id="node3" class="node"><title>ApplicationController</title>
<path fill="none" stroke="black" d="M102,-15.5C102,-15.5 250,-15.5 250,-15.5 256,-15.5 262,-21.5 262,-27.5 262,-27.5 262,-96.5 262,-96.5 262,-102.5 256,-108.5 250,-108.5 250,-108.5 102,-108.5 102,-108.5 96,-108.5 90,-102.5 90,-96.5 90,-96.5 90,-27.5 90,-27.5 90,-21.5 96,-15.5 102,-15.5"/>
<text text-anchor="middle" x="176" y="-93.3" font-family="Times,serif" font-size="14.00">ApplicationController</text>
<polyline fill="none" stroke="black" points="90,-85.5 262,-85.5 "/>
<polyline fill="none" stroke="black" points="90,-61.5 262,-61.5 "/>
<text text-anchor="start" x="98" y="-46.3" font-family="Times,serif" font-size="14.00">current_user_or_anonymous</text>
<polyline fill="none" stroke="black" points="90,-38.5 262,-38.5 "/>
<text text-anchor="start" x="98" y="-23.3" font-family="Times,serif" font-size="14.00">_layout</text>
</g>
<!-- UsersController -->
<g id="node4" class="node"><title>UsersController</title>
<path fill="none" stroke="black" d="M-197.5,44C-197.5,44 -118.5,44 -118.5,44 -112.5,44 -106.5,38 -106.5,32 -106.5,32 -106.5,-82 -106.5,-82 -106.5,-88 -112.5,-94 -118.5,-94 -118.5,-94 -197.5,-94 -197.5,-94 -203.5,-94 -209.5,-88 -209.5,-82 -209.5,-82 -209.5,32 -209.5,32 -209.5,38 -203.5,44 -197.5,44"/>
<text text-anchor="middle" x="-158" y="-78.8" font-family="Times,serif" font-size="14.00">UsersController</text>
<polyline fill="none" stroke="black" points="-209.5,-71 -106.5,-71 "/>
<text text-anchor="start" x="-201.5" y="-55.8" font-family="Times,serif" font-size="14.00">edit</text>
<text text-anchor="start" x="-201.5" y="-40.8" font-family="Times,serif" font-size="14.00">show</text>
<text text-anchor="start" x="-201.5" y="-25.8" font-family="Times,serif" font-size="14.00">update</text>
<polyline fill="none" stroke="black" points="-209.5,-18 -106.5,-18 "/>
<polyline fill="none" stroke="black" points="-209.5,6 -106.5,6 "/>
<text text-anchor="start" x="-201.5" y="21.2" font-family="Times,serif" font-size="14.00">_layout</text>
<text text-anchor="start" x="-201.5" y="36.2" font-family="Times,serif" font-size="14.00">user_params</text>
</g>
<!-- DefinitionsController -->
<g id="node5" class="node"><title>DefinitionsController</title>
<path fill="none" stroke="black" d="M-62.5,104C-62.5,104 46.5,104 46.5,104 52.5,104 58.5,98 58.5,92 58.5,92 58.5,-82 58.5,-82 58.5,-88 52.5,-94 46.5,-94 46.5,-94 -62.5,-94 -62.5,-94 -68.5,-94 -74.5,-88 -74.5,-82 -74.5,-82 -74.5,92 -74.5,92 -74.5,98 -68.5,104 -62.5,104"/>
<text text-anchor="middle" x="-8" y="-78.8" font-family="Times,serif" font-size="14.00">DefinitionsController</text>
<polyline fill="none" stroke="black" points="-74.5,-71 58.5,-71 "/>
<text text-anchor="start" x="-66.5" y="-55.8" font-family="Times,serif" font-size="14.00">create</text>
<text text-anchor="start" x="-66.5" y="-40.8" font-family="Times,serif" font-size="14.00">destroy</text>
<text text-anchor="start" x="-66.5" y="-25.8" font-family="Times,serif" font-size="14.00">edit</text>
<text text-anchor="start" x="-66.5" y="-10.8" font-family="Times,serif" font-size="14.00">new</text>
<text text-anchor="start" x="-66.5" y="4.2" font-family="Times,serif" font-size="14.00">show</text>
<text text-anchor="start" x="-66.5" y="19.2" font-family="Times,serif" font-size="14.00">update</text>
<polyline fill="none" stroke="black" points="-74.5,27 58.5,27 "/>
<polyline fill="none" stroke="black" points="-74.5,51 58.5,51 "/>
<text text-anchor="start" x="-66.5" y="66.2" font-family="Times,serif" font-size="14.00">_layout</text>
<text text-anchor="start" x="-66.5" y="81.2" font-family="Times,serif" font-size="14.00">definition_params</text>
<text text-anchor="start" x="-66.5" y="96.2" font-family="Times,serif" font-size="14.00">set_definition</text>
</g>
<!-- WordsController -->
<g id="node6" class="node"><title>WordsController</title>
<path fill="none" stroke="black" d="M-197.5,179C-197.5,179 -112.5,179 -112.5,179 -106.5,179 -100.5,173 -100.5,167 -100.5,167 -100.5,83 -100.5,83 -100.5,77 -106.5,71 -112.5,71 -112.5,71 -197.5,71 -197.5,71 -203.5,71 -209.5,77 -209.5,83 -209.5,83 -209.5,167 -209.5,167 -209.5,173 -203.5,179 -197.5,179"/>
<text text-anchor="middle" x="-155" y="86.2" font-family="Times,serif" font-size="14.00">WordsController</text>
<polyline fill="none" stroke="black" points="-209.5,94 -100.5,94 "/>
<text text-anchor="start" x="-201.5" y="109.2" font-family="Times,serif" font-size="14.00">index</text>
<text text-anchor="start" x="-201.5" y="124.2" font-family="Times,serif" font-size="14.00">show</text>
<polyline fill="none" stroke="black" points="-209.5,132 -100.5,132 "/>
<polyline fill="none" stroke="black" points="-209.5,156 -100.5,156 "/>
<text text-anchor="start" x="-201.5" y="171.2" font-family="Times,serif" font-size="14.00">_layout</text>
</g>
<!-- VotesController -->
<g id="node7" class="node"><title>VotesController</title>
<path fill="none" stroke="black" d="M102,239.5C102,239.5 182,239.5 182,239.5 188,239.5 194,233.5 194,227.5 194,227.5 194,128.5 194,128.5 194,122.5 188,116.5 182,116.5 182,116.5 102,116.5 102,116.5 96,116.5 90,122.5 90,128.5 90,128.5 90,227.5 90,227.5 90,233.5 96,239.5 102,239.5"/>
<text text-anchor="middle" x="142" y="131.7" font-family="Times,serif" font-size="14.00">VotesController</text>
<polyline fill="none" stroke="black" points="90,139.5 194,139.5 "/>
<text text-anchor="start" x="98" y="154.7" font-family="Times,serif" font-size="14.00">dislike</text>
<text text-anchor="start" x="98" y="169.7" font-family="Times,serif" font-size="14.00">like</text>
<polyline fill="none" stroke="black" points="90,177.5 194,177.5 "/>
<polyline fill="none" stroke="black" points="90,201.5 194,201.5 "/>
<text text-anchor="start" x="98" y="216.7" font-family="Times,serif" font-size="14.00">_layout</text>
<text text-anchor="start" x="98" y="231.7" font-family="Times,serif" font-size="14.00">set_definition</text>
</g>
<!-- BrowseController -->
<g id="node8" class="node"><title>BrowseController</title>
<path fill="none" stroke="black" d="M-2.5,-240.5C-2.5,-240.5 86.5,-240.5 86.5,-240.5 92.5,-240.5 98.5,-246.5 98.5,-252.5 98.5,-252.5 98.5,-321.5 98.5,-321.5 98.5,-327.5 92.5,-333.5 86.5,-333.5 86.5,-333.5 -2.5,-333.5 -2.5,-333.5 -8.5,-333.5 -14.5,-327.5 -14.5,-321.5 -14.5,-321.5 -14.5,-252.5 -14.5,-252.5 -14.5,-246.5 -8.5,-240.5 -2.5,-240.5"/>
<text text-anchor="middle" x="42" y="-318.3" font-family="Times,serif" font-size="14.00">BrowseController</text>
<polyline fill="none" stroke="black" points="-14.5,-310.5 98.5,-310.5 "/>
<text text-anchor="start" x="-6.5" y="-295.3" font-family="Times,serif" font-size="14.00">index</text>
<polyline fill="none" stroke="black" points="-14.5,-287.5 98.5,-287.5 "/>
<polyline fill="none" stroke="black" points="-14.5,-263.5 98.5,-263.5 "/>
<text text-anchor="start" x="-6.5" y="-248.3" font-family="Times,serif" font-size="14.00">_layout</text>
</g>
<!-- SitemapController -->
<g id="node9" class="node"><title>SitemapController</title>
<path fill="none" stroke="black" d="M237.5,224C237.5,224 330.5,224 330.5,224 336.5,224 342.5,218 342.5,212 342.5,212 342.5,128 342.5,128 342.5,122 336.5,116 330.5,116 330.5,116 237.5,116 237.5,116 231.5,116 225.5,122 225.5,128 225.5,128 225.5,212 225.5,212 225.5,218 231.5,224 237.5,224"/>
<text text-anchor="middle" x="284" y="131.2" font-family="Times,serif" font-size="14.00">SitemapController</text>
<polyline fill="none" stroke="black" points="225.5,139 342.5,139 "/>
<text text-anchor="start" x="233.5" y="154.2" font-family="Times,serif" font-size="14.00">index</text>
<text text-anchor="start" x="233.5" y="169.2" font-family="Times,serif" font-size="14.00">url_hash</text>
<polyline fill="none" stroke="black" points="225.5,177 342.5,177 "/>
<polyline fill="none" stroke="black" points="225.5,201 342.5,201 "/>
<text text-anchor="start" x="233.5" y="216.2" font-family="Times,serif" font-size="14.00">_layout</text>
</g>
<!-- User::RegistrationsController -->
<g id="node10" class="node"><title>User::RegistrationsController</title>
<path fill="none" stroke="black" d="M-108,-120.5C-108,-120.5 44,-120.5 44,-120.5 50,-120.5 56,-126.5 56,-132.5 56,-132.5 56,-201.5 56,-201.5 56,-207.5 50,-213.5 44,-213.5 44,-213.5 -108,-213.5 -108,-213.5 -114,-213.5 -120,-207.5 -120,-201.5 -120,-201.5 -120,-132.5 -120,-132.5 -120,-126.5 -114,-120.5 -108,-120.5"/>
<text text-anchor="middle" x="-32" y="-198.3" font-family="Times,serif" font-size="14.00">User::RegistrationsController</text>
<polyline fill="none" stroke="black" points="-120,-190.5 56,-190.5 "/>
<text text-anchor="start" x="-112" y="-175.3" font-family="Times,serif" font-size="14.00">destroy</text>
<polyline fill="none" stroke="black" points="-120,-167.5 56,-167.5 "/>
<polyline fill="none" stroke="black" points="-120,-143.5 56,-143.5 "/>
<text text-anchor="start" x="-112" y="-128.3" font-family="Times,serif" font-size="14.00">_layout</text>
</g>
<!-- User::SessionsController -->
<g id="node11" class="node"><title>User::SessionsController</title>
<path fill="none" stroke="black" d="M147,-136C147,-136 275,-136 275,-136 281,-136 287,-142 287,-148 287,-148 287,-218 287,-218 287,-224 281,-230 275,-230 275,-230 147,-230 147,-230 141,-230 135,-224 135,-218 135,-218 135,-148 135,-148 135,-142 141,-136 147,-136"/>
<text text-anchor="middle" x="211" y="-214.8" font-family="Times,serif" font-size="14.00">User::SessionsController</text>
<polyline fill="none" stroke="black" points="135,-207 287,-207 "/>
<polyline fill="none" stroke="black" points="135,-183 287,-183 "/>
<polyline fill="none" stroke="black" points="135,-159 287,-159 "/>
<text text-anchor="start" x="143" y="-143.8" font-family="Times,serif" font-size="14.00">_layout</text>
</g>
</g>
</svg>
