<?xml version="1.0" encoding="UTF-8" standalone="no"?>
<!DOCTYPE svg PUBLIC "-//W3C//DTD SVG 1.1//EN"
 "http://www.w3.org/Graphics/SVG/1.1/DTD/svg11.dtd">
<!-- Generated by graphviz version 2.38.0 (20140413.2041)
 -->
<!-- Title: models_diagram Pages: 1 -->
<svg width="553pt" height="246pt"
 viewBox="0.00 0.00 553.34 246.00" xmlns="http://www.w3.org/2000/svg" xmlns:xlink="http://www.w3.org/1999/xlink">
<g id="graph0" class="graph" transform="scale(1 1) rotate(0) translate(4 242)">
<title>models_diagram</title>
<polygon fill="none" stroke="none" points="-4,4 -4,-242 549.343,-242 549.343,4 -4,4"/>
<!-- _diagram_info -->
<g id="node1" class="node"><title>_diagram_info</title>
<text text-anchor="start" x="8" y="-223.6" font-family="Times,serif" font-size="13.00">Models diagram</text>
<text text-anchor="start" x="8" y="-209.6" font-family="Times,serif" font-size="13.00">Date: Apr 17 2017 &#45; 17:43</text>
<text text-anchor="start" x="8" y="-195.6" font-family="Times,serif" font-size="13.00">Migration version: 20170415180659</text>
<text text-anchor="start" x="8" y="-181.6" font-family="Times,serif" font-size="13.00">Generated by RailRoady 1.5.2</text>
<text text-anchor="start" x="8" y="-167.6" font-family="Times,serif" font-size="13.00">http://railroady.prestonlee.com</text>
</g>
<!-- Definition -->
<g id="node2" class="node"><title>Definition</title>
<ellipse fill="none" stroke="black" cx="316" cy="-91" rx="46.5926" ry="18"/>
<text text-anchor="middle" x="316" y="-87.3" font-family="Times,serif" font-size="14.00">Definition</text>
</g>
<!-- Vote -->
<g id="node5" class="node"><title>Vote</title>
<ellipse fill="none" stroke="black" cx="266" cy="-18" rx="27.8951" ry="18"/>
<text text-anchor="middle" x="266" y="-14.3" font-family="Times,serif" font-size="14.00">Vote</text>
</g>
<!-- Definition&#45;&gt;Vote -->
<g id="edge1" class="edge"><title>Definition&#45;&gt;Vote</title>
<path fill="none" stroke="#50f36a" d="M299.755,-66.9319C294.452,-59.4019 288.548,-51.0178 283.179,-43.3938"/>
<ellipse fill="none" stroke="#50f36a" cx="302.1" cy="-70.2623" rx="4.00002" ry="4.00002"/>
<polygon fill="#50f36a" stroke="#50f36a" points="282.948,-43.0657 280.869,-32.2986 280.069,-38.9776 277.19,-34.8896 277.19,-34.8896 277.19,-34.8896 280.069,-38.9776 273.511,-37.4806 282.948,-43.0657 282.948,-43.0657"/>
</g>
<!-- User -->
<g id="node3" class="node"><title>User</title>
<ellipse fill="none" stroke="black" cx="259" cy="-199" rx="27.0966" ry="18"/>
<text text-anchor="middle" x="259" y="-195.3" font-family="Times,serif" font-size="14.00">User</text>
</g>
<!-- User&#45;&gt;Definition -->
<g id="edge2" class="edge"><title>User&#45;&gt;Definition</title>
<path fill="none" stroke="#345d48" d="M271.514,-174.728C280.529,-157.964 292.697,-135.335 302.029,-117.981"/>
<ellipse fill="none" stroke="#345d48" cx="269.552" cy="-178.378" rx="4.00002" ry="4.00002"/>
<polygon fill="#345d48" stroke="#345d48" points="302.147,-117.761 310.847,-111.085 304.515,-113.357 306.883,-108.954 306.883,-108.954 306.883,-108.954 304.515,-113.357 302.92,-106.822 302.147,-117.761 302.147,-117.761"/>
</g>
<!-- User&#45;&gt;Vote -->
<g id="edge3" class="edge"><title>User&#45;&gt;Vote</title>
<path fill="none" stroke="#0b1347" d="M258.442,-172.705C258.064,-147.437 257.951,-107.495 260,-73 260.525,-64.1636 261.471,-54.5492 262.459,-45.9146"/>
<ellipse fill="none" stroke="#0b1347" cx="258.516" cy="-176.999" rx="4" ry="4"/>
<polygon fill="#0b1347" stroke="#0b1347" points="262.459,-45.914 268.128,-36.5267 263.06,-40.9502 263.66,-35.9864 263.66,-35.9864 263.66,-35.9864 263.06,-40.9502 259.193,-35.446 262.459,-45.914 262.459,-45.914"/>
</g>
<!-- Word -->
<g id="node4" class="node"><title>Word</title>
<ellipse fill="none" stroke="black" cx="341" cy="-199" rx="31.3957" ry="18"/>
<text text-anchor="middle" x="341" y="-195.3" font-family="Times,serif" font-size="14.00">Word</text>
</g>
<!-- Word&#45;&gt;Definition -->
<g id="edge4" class="edge"><title>Word&#45;&gt;Definition</title>
<path fill="none" stroke="#abc28e" d="M332.709,-173.298C329.669,-163.617 326.391,-152.364 324,-142 322.308,-134.664 320.853,-126.641 319.665,-119.211"/>
<ellipse fill="none" stroke="#abc28e" cx="333.96" cy="-177.197" rx="4.00001" ry="4.00001"/>
<polygon fill="#abc28e" stroke="#abc28e" points="319.652,-119.125 322.618,-108.568 318.91,-114.181 318.168,-109.236 318.168,-109.236 318.168,-109.236 318.91,-114.181 313.718,-109.904 319.652,-119.125 319.652,-119.125"/>
</g>
<!-- Word&#45;&gt;Definition -->
<g id="edge5" class="edge"><title>Word&#45;&gt;Definition</title>
<path fill="none" stroke="#034ca0" d="M335.106,-173.008C331.107,-156.052 325.842,-133.73 321.852,-116.812"/>
<ellipse fill="none" stroke="#034ca0" cx="336.065" cy="-177.076" rx="4.00001" ry="4.00001"/>
<ellipse fill="#034ca0" stroke="#034ca0" cx="320.925" cy="-112.882" rx="4.00001" ry="4.00001"/>
<text text-anchor="middle" x="368" y="-130.8" font-family="Times,serif" font-size="14.00">best_definition</text>
</g>
<!-- ApplicationRecord -->
<g id="node6" class="node"><title>ApplicationRecord</title>
<ellipse fill="none" stroke="black" cx="468" cy="-199" rx="77.1866" ry="18"/>
<text text-anchor="middle" x="468" y="-195.3" font-family="Times,serif" font-size="14.00">ApplicationRecord</text>
</g>
</g>
</svg>
