<?xml version="1.0" encoding="UTF-8" standalone="no"?>
<!DOCTYPE svg PUBLIC "-//W3C//DTD SVG 1.1//EN"
 "http://www.w3.org/Graphics/SVG/1.1/DTD/svg11.dtd">
<!-- Generated by graphviz version 2.38.0 (20140413.2041)
 -->
<!-- Title: models_diagram Pages: 1 -->
<svg width="988pt" height="672pt"
 viewBox="0.00 0.00 988.34 672.00" xmlns="http://www.w3.org/2000/svg" xmlns:xlink="http://www.w3.org/1999/xlink">
<g id="graph0" class="graph" transform="scale(1 1) rotate(0) translate(4 668)">
<title>models_diagram</title>
<polygon fill="none" stroke="none" points="-4,4 -4,-668 984.343,-668 984.343,4 -4,4"/>
<!-- _diagram_info -->
<g id="node1" class="node"><title>_diagram_info</title>
<text text-anchor="start" x="8" y="-560.1" font-family="Times,serif" font-size="13.00">Models diagram</text>
<text text-anchor="start" x="8" y="-546.1" font-family="Times,serif" font-size="13.00">Date: Apr 17 2017 &#45; 17:43</text>
<text text-anchor="start" x="8" y="-532.1" font-family="Times,serif" font-size="13.00">Migration version: 20170415180659</text>
<text text-anchor="start" x="8" y="-518.1" font-family="Times,serif" font-size="13.00">Generated by RailRoady 1.5.2</text>
<text text-anchor="start" x="8" y="-504.1" font-family="Times,serif" font-size="13.00">http://railroady.prestonlee.com</text>
</g>
<!-- Definition -->
<g id="node2" class="node"><title>Definition</title>
<path fill="none" stroke="black" d="M471,-159.5C471,-159.5 691,-159.5 691,-159.5 697,-159.5 703,-165.5 703,-171.5 703,-171.5 703,-343.5 703,-343.5 703,-349.5 697,-355.5 691,-355.5 691,-355.5 471,-355.5 471,-355.5 465,-355.5 459,-349.5 459,-343.5 459,-343.5 459,-171.5 459,-171.5 459,-165.5 465,-159.5 471,-159.5"/>
<text text-anchor="middle" x="581" y="-340.3" font-family="Times,serif" font-size="14.00">Definition</text>
<polyline fill="none" stroke="black" points="459,-332.5 703,-332.5 "/>
<text text-anchor="start" x="467" y="-317.3" font-family="Times,serif" font-size="14.00">id :integer</text>
<text text-anchor="start" x="467" y="-302.3" font-family="Times,serif" font-size="14.00">user_id :integer</text>
<text text-anchor="start" x="467" y="-287.3" font-family="Times,serif" font-size="14.00">word_id :integer</text>
<text text-anchor="start" x="467" y="-272.3" font-family="Times,serif" font-size="14.00">definition :text</text>
<text text-anchor="start" x="467" y="-257.3" font-family="Times,serif" font-size="14.00">example :text</text>
<text text-anchor="start" x="467" y="-242.3" font-family="Times,serif" font-size="14.00">created_at :timestamp without time zone</text>
<text text-anchor="start" x="467" y="-227.3" font-family="Times,serif" font-size="14.00">updated_at :timestamp without time zone</text>
<text text-anchor="start" x="467" y="-212.3" font-family="Times,serif" font-size="14.00">hidden :boolean</text>
<text text-anchor="start" x="467" y="-197.3" font-family="Times,serif" font-size="14.00">likes_counter :integer</text>
<text text-anchor="start" x="467" y="-182.3" font-family="Times,serif" font-size="14.00">dislikes_counter :integer</text>
<text text-anchor="start" x="467" y="-167.3" font-family="Times,serif" font-size="14.00">original_word :character varying</text>
</g>
<!-- Vote -->
<g id="node5" class="node"><title>Vote</title>
<path fill="none" stroke="black" d="M343,-0.5C343,-0.5 563,-0.5 563,-0.5 569,-0.5 575,-6.5 575,-12.5 575,-12.5 575,-109.5 575,-109.5 575,-115.5 569,-121.5 563,-121.5 563,-121.5 343,-121.5 343,-121.5 337,-121.5 331,-115.5 331,-109.5 331,-109.5 331,-12.5 331,-12.5 331,-6.5 337,-0.5 343,-0.5"/>
<text text-anchor="middle" x="453" y="-106.3" font-family="Times,serif" font-size="14.00">Vote</text>
<polyline fill="none" stroke="black" points="331,-98.5 575,-98.5 "/>
<text text-anchor="start" x="339" y="-83.3" font-family="Times,serif" font-size="14.00">id :integer</text>
<text text-anchor="start" x="339" y="-68.3" font-family="Times,serif" font-size="14.00">user_id :integer</text>
<text text-anchor="start" x="339" y="-53.3" font-family="Times,serif" font-size="14.00">definition_id :integer</text>
<text text-anchor="start" x="339" y="-38.3" font-family="Times,serif" font-size="14.00">like :boolean</text>
<text text-anchor="start" x="339" y="-23.3" font-family="Times,serif" font-size="14.00">created_at :timestamp without time zone</text>
<text text-anchor="start" x="339" y="-8.3" font-family="Times,serif" font-size="14.00">updated_at :timestamp without time zone</text>
</g>
<!-- Definition&#45;&gt;Vote -->
<g id="edge1" class="edge"><title>Definition&#45;&gt;Vote</title>
<path fill="none" stroke="#380b6f" d="M512.455,-152.344C507.491,-144.802 502.565,-137.315 497.794,-130.067"/>
<ellipse fill="none" stroke="#380b6f" cx="514.801" cy="-155.909" rx="4.00002" ry="4.00002"/>
<polygon fill="#380b6f" stroke="#380b6f" points="497.771,-130.032 496.033,-119.204 495.023,-125.855 492.274,-121.678 492.274,-121.678 492.274,-121.678 495.023,-125.855 488.515,-124.152 497.771,-130.032 497.771,-130.032"/>
</g>
<!-- User -->
<g id="node3" class="node"><title>User</title>
<path fill="none" stroke="black" d="M244.5,-407.5C244.5,-407.5 533.5,-407.5 533.5,-407.5 539.5,-407.5 545.5,-413.5 545.5,-419.5 545.5,-419.5 545.5,-651.5 545.5,-651.5 545.5,-657.5 539.5,-663.5 533.5,-663.5 533.5,-663.5 244.5,-663.5 244.5,-663.5 238.5,-663.5 232.5,-657.5 232.5,-651.5 232.5,-651.5 232.5,-419.5 232.5,-419.5 232.5,-413.5 238.5,-407.5 244.5,-407.5"/>
<text text-anchor="middle" x="389" y="-648.3" font-family="Times,serif" font-size="14.00">User</text>
<polyline fill="none" stroke="black" points="232.5,-640.5 545.5,-640.5 "/>
<text text-anchor="start" x="240.5" y="-625.3" font-family="Times,serif" font-size="14.00">id :integer</text>
<text text-anchor="start" x="240.5" y="-610.3" font-family="Times,serif" font-size="14.00">email :character varying</text>
<text text-anchor="start" x="240.5" y="-595.3" font-family="Times,serif" font-size="14.00">encrypted_password :character varying</text>
<text text-anchor="start" x="240.5" y="-580.3" font-family="Times,serif" font-size="14.00">reset_password_token :character varying</text>
<text text-anchor="start" x="240.5" y="-565.3" font-family="Times,serif" font-size="14.00">reset_password_sent_at :timestamp without time zone</text>
<text text-anchor="start" x="240.5" y="-550.3" font-family="Times,serif" font-size="14.00">remember_created_at :timestamp without time zone</text>
<text text-anchor="start" x="240.5" y="-535.3" font-family="Times,serif" font-size="14.00">sign_in_count :integer</text>
<text text-anchor="start" x="240.5" y="-520.3" font-family="Times,serif" font-size="14.00">current_sign_in_at :timestamp without time zone</text>
<text text-anchor="start" x="240.5" y="-505.3" font-family="Times,serif" font-size="14.00">last_sign_in_at :timestamp without time zone</text>
<text text-anchor="start" x="240.5" y="-490.3" font-family="Times,serif" font-size="14.00">current_sign_in_ip :inet</text>
<text text-anchor="start" x="240.5" y="-475.3" font-family="Times,serif" font-size="14.00">last_sign_in_ip :inet</text>
<text text-anchor="start" x="240.5" y="-460.3" font-family="Times,serif" font-size="14.00">created_at :timestamp without time zone</text>
<text text-anchor="start" x="240.5" y="-445.3" font-family="Times,serif" font-size="14.00">updated_at :timestamp without time zone</text>
<text text-anchor="start" x="240.5" y="-430.3" font-family="Times,serif" font-size="14.00">handle :character varying</text>
<text text-anchor="start" x="240.5" y="-415.3" font-family="Times,serif" font-size="14.00">slug :citext</text>
</g>
<!-- User&#45;&gt;Definition -->
<g id="edge2" class="edge"><title>User&#45;&gt;Definition</title>
<path fill="none" stroke="#ce608d" d="M482.243,-400.463C490.793,-388.172 499.373,-375.839 507.71,-363.855"/>
<ellipse fill="none" stroke="#ce608d" cx="479.698" cy="-404.122" rx="4.00002" ry="4.00002"/>
<polygon fill="#ce608d" stroke="#ce608d" points="507.729,-363.828 517.133,-358.188 510.584,-359.723 513.439,-355.618 513.439,-355.618 513.439,-355.618 510.584,-359.723 509.745,-353.049 507.729,-363.828 507.729,-363.828"/>
</g>
<!-- User&#45;&gt;Vote -->
<g id="edge3" class="edge"><title>User&#45;&gt;Vote</title>
<path fill="none" stroke="#3cbb19" d="M407.312,-399.306C419.149,-311.914 434.065,-201.79 443.57,-131.619"/>
<ellipse fill="none" stroke="#3cbb19" cx="406.772" cy="-403.293" rx="4.00001" ry="4.00001"/>
<polygon fill="#3cbb19" stroke="#3cbb19" points="443.59,-131.473 449.391,-122.167 444.261,-126.518 444.932,-121.563 444.932,-121.563 444.932,-121.563 444.261,-126.518 440.473,-120.959 443.59,-131.473 443.59,-131.473"/>
</g>
<!-- Word -->
<g id="node4" class="node"><title>Word</title>
<path fill="none" stroke="black" d="M576,-475C576,-475 796,-475 796,-475 802,-475 808,-481 808,-487 808,-487 808,-584 808,-584 808,-590 802,-596 796,-596 796,-596 576,-596 576,-596 570,-596 564,-590 564,-584 564,-584 564,-487 564,-487 564,-481 570,-475 576,-475"/>
<text text-anchor="middle" x="686" y="-580.8" font-family="Times,serif" font-size="14.00">Word</text>
<polyline fill="none" stroke="black" points="564,-573 808,-573 "/>
<text text-anchor="start" x="572" y="-557.8" font-family="Times,serif" font-size="14.00">id :integer</text>
<text text-anchor="start" x="572" y="-542.8" font-family="Times,serif" font-size="14.00">word :character varying</text>
<text text-anchor="start" x="572" y="-527.8" font-family="Times,serif" font-size="14.00">slug :citext</text>
<text text-anchor="start" x="572" y="-512.8" font-family="Times,serif" font-size="14.00">created_at :timestamp without time zone</text>
<text text-anchor="start" x="572" y="-497.8" font-family="Times,serif" font-size="14.00">updated_at :timestamp without time zone</text>
<text text-anchor="start" x="572" y="-482.8" font-family="Times,serif" font-size="14.00">hidden :boolean</text>
</g>
<!-- Word&#45;&gt;Definition -->
<g id="edge4" class="edge"><title>Word&#45;&gt;Definition</title>
<path fill="none" stroke="#df825d" d="M660.5,-467.472C648.826,-436.786 634.705,-399.666 621.622,-365.277"/>
<ellipse fill="none" stroke="#df825d" cx="661.924" cy="-471.213" rx="4.00001" ry="4.00001"/>
<polygon fill="#df825d" stroke="#df825d" points="621.518,-365.004 622.168,-354.057 619.74,-360.331 617.962,-355.658 617.962,-355.658 617.962,-355.658 619.74,-360.331 613.756,-357.258 621.518,-365.004 621.518,-365.004"/>
</g>
<!-- Word&#45;&gt;Definition -->
<g id="edge5" class="edge"><title>Word&#45;&gt;Definition</title>
<path fill="none" stroke="#b00397" d="M670.919,-466.745C663.567,-437.712 653.756,-403.715 642,-374 640.588,-370.432 639.097,-366.831 637.542,-363.216"/>
<ellipse fill="none" stroke="#b00397" cx="671.959" cy="-470.913" rx="4.00001" ry="4.00001"/>
<ellipse fill="#b00397" stroke="#b00397" cx="635.88" cy="-359.446" rx="4.00002" ry="4.00002"/>
<text text-anchor="middle" x="687" y="-377.8" font-family="Times,serif" font-size="14.00">best_definition</text>
</g>
<!-- ApplicationRecord -->
<g id="node6" class="node"><title>ApplicationRecord</title>
<ellipse fill="none" stroke="black" cx="903" cy="-535.5" rx="77.1866" ry="18"/>
<text text-anchor="middle" x="903" y="-531.8" font-family="Times,serif" font-size="14.00">ApplicationRecord</text>
</g>
</g>
</svg>
